BBC Proms 2012 - 38. National Youth Jazz Orchestra

Ellington - Rockin' in Rhythm (6 mins)
Nikki Iles - Hush (8 mins)
Kenny Wheeler - Sweet Time Suite - Know Where You Are (6 mins)
Monk - 'Round midnight (arr. M. Armstrong) (5 mins)
Richardson - Groove Merchant (7 mins)
Chris Whiter - The Change (8 mins)
Tom Stone - Return Flight (7 mins)
Ellington - Caravan (arr. Callum Au) (8 mins)
Ellington - The Queen's Suite - Sunset and the Mockingbird (4 mins)
Tim Garland - Agro Alegr┬ía (c8 mins)

Tim Garland saxophone
Mark Mondesir drums
National Youth Jazz Orchestra
Mark Armstrong conductor

ID                                       : 1
Format                                   : AVC
Format/Info                              : Advanced Video Codec
Format profile                           : Main@L3.0
Format settings, CABAC                   : Yes
Format settings, ReFrames                : 4 frames
Codec ID                                 : avc1
Codec ID/Info                            : Advanced Video Coding
Duration                                 : 1h 19mn
Bit rate mode                            : Constant
Bit rate                                 : 1 404 Kbps
Width                                    : 832 pixels
Height                                   : 468 pixels
Display aspect ratio                     : 16:9
Frame rate mode                          : Constant
Frame rate                               : 25.000 fps
Standard                                 : PAL
Color space                              : YUV
Chroma subsampling                       : 4:2:0
Bit depth                                : 8 bits
Scan type                                : Progressive
Bits/(Pixel*Frame)                       : 0.144
Stream size                              : 795 MiB (93%)

Audio
ID                                       : 2
Format                                   : AAC
Format/Info                              : Advanced Audio Codec
Format profile                           : HE-AAC / LC
Codec ID                                 : 40
Duration                                 : 1h 19mn
Bit rate mode                            : Constant
Bit rate                                 : 96.0 Kbps
Channel(s)                               : 2 channels
Channel positions                        : Front: L R
Sampling rate                            : 48.0 KHz / 24.0 KHz
Compression mode                         : Lossy
Stream size                              : 53.7 MiB (6%)
